<svg xmlns="http://www.w3.org/2000/svg" xmlns:xlink="http://www.w3.org/1999/xlink" viewBox="0 0 1000 1200" width="1000" height="1200" xmlns:c2pa="http://c2pa.org/manifest"><metadata><c2pa:manifest>AAAWgmp1bWIAAAAeanVtZGMycGEAEQAQgAAAqgA4m3EDYzJwYQAAABZcanVtYgAAAEdqdW1kYzJtYQARABCAAACqADibcQN1cm46YzJwYTo4YTFmMzFiMS0xMWUwLTQyZjEtODIzMS1mM2U3OTJkMmQyZDQAAAADl2p1bWIAAAApanVtZGMyYXMAEQAQgAAAqgA4m3EDYzJwYS5hc3NlcnRpb25zAAAAALxqdW1iAAAARGp1bWRjYm9yABEAEIAAAKoAOJtxE2MycGEuaW5ncmVkaWVudC52MwAAAAAYYzJzaOeeSSUYWaJZVSk8q+jrEQ0AAABwY2JvcqNpZGM6Zm9ybWF0bWltYWdlL3N2Zyt4bWxqaW5zdGFuY2VJRHgseG1wOmlpZDo3NDRkMzBiMy1mZGJiLTQ2MTgtOTg4My1hOTFiNWIxODk0YTdscmVsYXRpb25zaGlwaHBhcmVudE9mAAAB4mp1bWIAAABBanVtZGNib3IAEQAQgAAAqgA4m3ETYzJwYS5hY3Rpb25zLnYyAAAAABhjMnNohVYPYy0Pj5XDbDsKrJHNvgAAAZljYm9yomdhY3Rpb25zgqJmYWN0aW9ua2MycGEub3BlbmVkanBhcmFtZXRlcnOha2luZ3JlZGllbnRzgaJjdXJseC1zZWxmI2p1bWJmPWMycGEuYXNzZXJ0aW9ucy9jMnBhLmluZ3JlZGllbnQudjNkaGFzaFggUGeZDxNZ4BKehIggwNoqV5FSAD0nMNAVyr/rcA+AClykZmFjdGlvbngdY29tLmFudGhyb3BpYy5jbGF1ZGUucHJvdmlkZWRqcGFyYW1ldGVyc6F4H2NvbS5hbnRocm9waWMub3JpZ2luLWNvbmZpZGVuY2VndW5rbm93bmtkZXNjcmlwdGlvbnhmQ2xhdWRlIHByb3ZpZGVkIHRoaXMgZmlsZSBhdCB0aGUgcmVxdWVzdCBvZiBhIHVzZXIgYW5kIG1heSBoYXZlIGNyZWF0ZWQgb3IgbW9kaWZpZWQgdGhlIGZpbGUgY29udGVudHMubXNvZnR3YXJlQWdlbnShZG5hbWVmQ2xhdWRlcmFsbEFjdGlvbnNJbmNsdWRlZPUAAADIanVtYgAAAEBqdW1kY2JvcgARABCAAACqADibcRNjMnBhLmhhc2guZGF0YQAAAAAYYzJzaLS9fEXIR7scz9NNUYUoR0YAAACAY2JvcqVjYWxnZnNoYTI1NmNwYWRNAAAAAAAAAAAAAAAAAGRoYXNoWCDCNNk6M9T7l9jmb+vlm9knLPtcrQaMCW41PhfgLkcGAGRuYW1lbmp1bWJmIG1hbmlmZXN0amV4Y2x1c2lvbnOBomVzdGFydBjFZmxlbmd0aBkeBAAAAj5qdW1iAAAAJ2p1bWRjMmNsABEAEIAAAKoAOJtxA2MycGEuY2xhaW0udjIAAAACD2Nib3KlY2FsZ2ZzaGEyNTZpc2lnbmF0dXJleE1zZWxmI2p1bWJmPS9jMnBhL3VybjpjMnBhOjhhMWYzMWIxLTExZTAtNDJmMS04MjMxLWYzZTc5MmQyZDJkNC9jMnBhLnNpZ25hdHVyZWppbnN0YW5jZUlEeCx4bXA6aWlkOjkxMjI5NGQyLWExMzUtNGE4OS05NWI3LWI3NmNkMDI0MTVkNXJjcmVhdGVkX2Fzc2VydGlvbnODomN1cmx4LXNlbGYjanVtYmY9YzJwYS5hc3NlcnRpb25zL2MycGEuaW5ncmVkaWVudC52M2RoYXNoWCBQZ5kPE1ngEp6EiCDA2ipXkVIAPScw0BXKv+twD4AKXKJjdXJseCpzZWxmI2p1bWJmPWMycGEuYXNzZXJ0aW9ucy9jMnBhLmFjdGlvbnMudjJkaGFzaFggOH0kC2oNT/BILnOaK+llu1vjeeNRYPBPPRVT+NIW1GSiY3VybHgpc2VsZiNqdW1iZj1jMnBhLmFzc2VydGlvbnMvYzJwYS5oYXNoLmRhdGFkaGFzaFggxgGl+ulni4du8yo3jRiN36+KtIqq6dbqH6C3IGp3kIp0Y2xhaW1fZ2VuZXJhdG9yX2luZm+jZG5hbWVvQW50aHJvcGljIEZpbGVzZ3ZlcnNpb25lMS4wLjBrc3BlY1ZlcnNpb25lMi40LjAAABA4anVtYgAAAChqdW1kYzJjcwARABCAAACqADibcQNjMnBhLnNpZ25hdHVyZQAAABAIY2JvctKEWQISogEmGCFZAgowggIGMIIBjaADAgECAhRA5aAK7sI50L64g/oGQgU9Z1UTADAKBggqhkjOPQQDAzBJMRcwFQYDVQQKEw5BbnRocm9waWMsIFBCQzEuMCwGA1UEAxMlQW50aHJvcGljIENvbnRlbnQgQ3JlZGVudGlhbHMgUm9vdCBDQTAeFw0yNjA4MDcxODQzNTZaFw0yODA4MDYxOTQzNTZaMEQxFzAVBgNVBAoTDkFudGhyb3BpYywgUEJDMSkwJwYDVQQDEyBBbnRocm9waWMgQ2xhdWRlIENvbnRlbnQgU2lnbmluZzBZMBMGByqGSM49AgEGCCqGSM49AwEHA0IABJh6CmvLUBgFFNU0vUKlOVtE6djd17L5SuwX0LemFisBM3dkd/3cyjxFA3Qo5S46fX0/ihY0VZ7mfb9KF703t5OjWDBWMA4GA1UdDwEB/wQEAwIHgDAVBgNVHSUEDjAMBgorBgEEAYPoXgIBMAwGA1UdEwEB/wQCMAAwHwYDVR0jBBgwFoAUzlHiBIFOZFsj+OPEz5o+nMHXXMIwCgYIKoZIzj0EAwMDZwAwZAIwMXMdFJ4BetLLVY7ORuE9noqbbAZOZn/aArXyTwFAZfKrPzxF2vPoJNf1+UCdg1XGAjBwX1zd9WGqYkqmL5SFqw1QySjr1zJfpJM9+1rdDwSPLMOPOjKuiXjoU/pUUeG9RwmhY3BhZFkNngAAAAAAAAAAAAAAAAAAAAAAAAAAAAAAAAAAAAAAAAAAAAAAAAAAAAAAAAAAAAAAAAAAAAAAAAAAAAAAAAAAAAAAAAAAAAAAAAAAAAAAAAAAAAAAAAAAAAAAAAAAAAAAAAAAAAAAAAAAAAAAAAAAAAAAAAAAAAAAAAAAAAAAAAAAAAAAAAAAAAAAAAAAAAAAAAAAAAAAAAAAAAAAAAAAAAAAAAAAAAAAAAAAAAAAAAAAAAAAAAAAAAAAAAAAAAAAAAAAAAAAAAAAAAAAAAAAAAAAAAAAAAAAAAAAAAAAAAAAAAAAAAAAAAAAAAAAAAAAAAAAAAAAAAAAAAAAAAAAAAAAAAAAAAAAAAAAAAAAAAAAAAAAAAAAAAAAAAAAAAAAAAAAAAAAAAAAAAAAAAAAAAAAAAAAAAAAAAAAAAAAAAAAAAAAAAAAAAAAAAAAAAAAAAAAAAAAAAAAAAAAAAAAAAAAAAAAAAAAAAAAAAAAAAAAAAAAAAAAAAAAAAAAAAAAAAAAAAAAAAAAAAAAAAAAAAAAAAAAAAAAAAAAAAAAAAAAAAAAAAAAAAAAAAAAAAAAAAAAAAAAAAAAAAAAAAAAAAAAAAAAAAAAAAAAAAAAAAAAAAAAAAAAAAAAAAAAAAAAAAAAAAAAAAAAAAAAAAAAAAAAAAAAAAAAAAAAAAAAAAAAAAAAAAAAAAAAAAAAAAAAAAAAAAAAAAAAAAAAAAAAAAAAAAAAAAAAAAAAAAAAAAAAAAAAAAAAAAAAAAAAAAAAAAAAAAAAAAAAAAAAAAAAAAAAAAAAAAAAAAAAAAAAAAAAAAAAAAAAAAAAAAAAAAAAAAAAAAAAAAAAAAAAAAAAAAAAAAAAAAAAAAAAAAAAAAAAAAAAAAAAAAAAAAAAAAAAAAAAAAAAAAAAAAAAAAAAAAAAAAAAAAAAAAAAAAAAAAAAAAAAAAAAAAAAAAAAAAAAAAAAAAAAAAAAAAAAAAAAAAAAAAAAAAAAAAAAAAAAAAAAAAAAAAAAAAAAAAAAAAAAAAAAAAAAAAAAAAAAAAAAAAAAAAAAAAAAAAAAAAAAAAAAAAAAAAAAAAAAAAAAAAAAAAAAAAAAAAAAAAAAAAAAAAAAAAAAAAAAAAAAAAAAAAAAAAAAAAAAAAAAAAAAAAAAAAAAAAAAAAAAAAAAAAAAAAAAAAAAAAAAAAAAAAAAAAAAAAAAAAAAAAAAAAAAAAAAAAAAAAAAAAAAAAAAAAAAAAAAAAAAAAAAAAAAAAAAAAAAAAAAAAAAAAAAAAAAAAAAAAAAAAAAAAAAAAAAAAAAAAAAAAAAAAAAAAAAAAAAAAAAAAAAAAAAAAAAAAAAAAAAAAAAAAAAAAAAAAAAAAAAAAAAAAAAAAAAAAAAAAAAAAAAAAAAAAAAAAAAAAAAAAAAAAAAAAAAAAAAAAAAAAAAAAAAAAAAAAAAAAAAAAAAAAAAAAAAAAAAAAAAAAAAAAAAAAAAAAAAAAAAAAAAAAAAAAAAAAAAAAAAAAAAAAAAAAAAAAAAAAAAAAAAAAAAAAAAAAAAAAAAAAAAAAAAAAAAAAAAAAAAAAAAAAAAAAAAAAAAAAAAAAAAAAAAAAAAAAAAAAAAAAAAAAAAAAAAAAAAAAAAAAAAAAAAAAAAAAAAAAAAAAAAAAAAAAAAAAAAAAAAAAAAAAAAAAAAAAAAAAAAAAAAAAAAAAAAAAAAAAAAAAAAAAAAAAAAAAAAAAAAAAAAAAAAAAAAAAAAAAAAAAAAAAAAAAAAAAAAAAAAAAAAAAAAAAAAAAAAAAAAAAAAAAAAAAAAAAAAAAAAAAAAAAAAAAAAAAAAAAAAAAAAAAAAAAAAAAAAAAAAAAAAAAAAAAAAAAAAAAAAAAAAAAAAAAAAAAAAAAAAAAAAAAAAAAAAAAAAAAAAAAAAAAAAAAAAAAAAAAAAAAAAAAAAAAAAAAAAAAAAAAAAAAAAAAAAAAAAAAAAAAAAAAAAAAAAAAAAAAAAAAAAAAAAAAAAAAAAAAAAAAAAAAAAAAAAAAAAAAAAAAAAAAAAAAAAAAAAAAAAAAAAAAAAAAAAAAAAAAAAAAAAAAAAAAAAAAAAAAAAAAAAAAAAAAAAAAAAAAAAAAAAAAAAAAAAAAAAAAAAAAAAAAAAAAAAAAAAAAAAAAAAAAAAAAAAAAAAAAAAAAAAAAAAAAAAAAAAAAAAAAAAAAAAAAAAAAAAAAAAAAAAAAAAAAAAAAAAAAAAAAAAAAAAAAAAAAAAAAAAAAAAAAAAAAAAAAAAAAAAAAAAAAAAAAAAAAAAAAAAAAAAAAAAAAAAAAAAAAAAAAAAAAAAAAAAAAAAAAAAAAAAAAAAAAAAAAAAAAAAAAAAAAAAAAAAAAAAAAAAAAAAAAAAAAAAAAAAAAAAAAAAAAAAAAAAAAAAAAAAAAAAAAAAAAAAAAAAAAAAAAAAAAAAAAAAAAAAAAAAAAAAAAAAAAAAAAAAAAAAAAAAAAAAAAAAAAAAAAAAAAAAAAAAAAAAAAAAAAAAAAAAAAAAAAAAAAAAAAAAAAAAAAAAAAAAAAAAAAAAAAAAAAAAAAAAAAAAAAAAAAAAAAAAAAAAAAAAAAAAAAAAAAAAAAAAAAAAAAAAAAAAAAAAAAAAAAAAAAAAAAAAAAAAAAAAAAAAAAAAAAAAAAAAAAAAAAAAAAAAAAAAAAAAAAAAAAAAAAAAAAAAAAAAAAAAAAAAAAAAAAAAAAAAAAAAAAAAAAAAAAAAAAAAAAAAAAAAAAAAAAAAAAAAAAAAAAAAAAAAAAAAAAAAAAAAAAAAAAAAAAAAAAAAAAAAAAAAAAAAAAAAAAAAAAAAAAAAAAAAAAAAAAAAAAAAAAAAAAAAAAAAAAAAAAAAAAAAAAAAAAAAAAAAAAAAAAAAAAAAAAAAAAAAAAAAAAAAAAAAAAAAAAAAAAAAAAAAAAAAAAAAAAAAAAAAAAAAAAAAAAAAAAAAAAAAAAAAAAAAAAAAAAAAAAAAAAAAAAAAAAAAAAAAAAAAAAAAAAAAAAAAAAAAAAAAAAAAAAAAAAAAAAAAAAAAAAAAAAAAAAAAAAAAAAAAAAAAAAAAAAAAAAAAAAAAAAAAAAAAAAAAAAAAAAAAAAAAAAAAAAAAAAAAAAAAAAAAAAAAAAAAAAAAAAAAAAAAAAAAAAAAAAAAAAAAAAAAAAAAAAAAAAAAAAAAAAAAAAAAAAAAAAAAAAAAAAAAAAAAAAAAAAAAAAAAAAAAAAAAAAAAAAAAAAAAAAAAAAAAAAAAAAAAAAAAAAAAAAAAAAAAAAAAAAAAAAAAAAAAAAAAAAAAAAAAAAAAAAAAAAAAAAAAAAAAAAAAAAAAAAAAAAAAAAAAAAAAAAAAAAAAAAAAAAAAAAAAAAAAAAAAAAAAAAAAAAAAAAAAAAAAAAAAAAAAAAAAAAAAAAAAAAAAAAAAAAAAAAAAAAAAAAAAAAAAAAAAAAAAAAAAAAAAAAAAAAAAAAAAAAAAAAAAAAAAAAAAAAAAAAAAAAAAAAAAAAAAAAAAAAAAAAAAAAAAAAAAAAAAAAAAAAAAAAAAAAAAAAAAAAAAAAAAAAAAAAAAAAAAAAAAAAAAAAAAAAAAAAAAAAAAAAAAAAAAAAAAAAAAAAAAAAAAAAAAAAAAAAAAAAAAAAAAAAAAAAAAAAAAAAAAAAAAAAAAAAAAAAAAAAAAAAAAAAAAAAAAAAAAAAAAAAAAAAAAAAAAAAAAAAAAAAAAAAAAAAAAAAAAAAAAAAAAAAAAAAAAAAAAAAAAAAAAAAAAAAAAAAAAAAAAAAAAAAAAAAAAAAAAAAAAAAAAAAAAAAAAAAAAAAAAAAAAAAAAAAAAAAAAAAAAAAAAAAAAAAAAAAAAAAAAAAAAAAAAAAAAAAAAAAAAAAAAAAAAAAAAAAAAAAAAAAAAAAAAAAAAAAAAAAAAAAAAAAAAAAAAAAAAAAAAAAAAAAAAAAAAAAAAAAAAAAAAAAAAAAAAAAAAAAAAAAAAAAAAAAAAAAAAAAAAAAAAAAAAAAAAAAAAAAAAAAAAAAAAAAAAAAAAAAAAAAAAAAAAAAAAAAAAAAAAAAAAAAAAAAAAAAAAAAAAAAAAAAAAAAAAAAAAAAAAAAAAAAAAAAAAAAAAAAAAAAAAAAAAAAAAAAAAAAAAAAAAAAAAAAAAAAAAAAAAAAAAAAAAAAAAAAAAAAAAAAAAAAAAAAAAAAAAAAAAAAAAAAAAAAAAAAAAAAAAAAAAAAAAAAAAAAAAAAAAAAAAAAAAAAAAAAAAAAAAAAAAAAAAAAAAAAAAAAAAAAAAAAAAAAAAAAAAAAAAAAAAAAAAAAAAAAAAAAAAAAAAAAAAAAAAAAAAAAAAAAAAAAAAAAAAAAAAAAAAAAAAAAAAAAAAAAAAAAAAAAAAAAAAAAAAAAAAAAAAAAAAAAAAAAAAAAAAAAAAAAAAAAAAAAAAAAAAAAAAAAAAAAAAAAAAAAAAAAAAAAAAAAAAAAAAAAAAAAAAAAAAAAAAAAAAAAAAAAAAAAAAAAAAAAAAAAAAAAAAAAAAAAAAAAAAAAAAAAAAAAAAAAAAAAAAAAAAAAAAAAAAAAAAAAAAAAAAAAAAAAAAAAAAAAAAAAAAAAAAAAAAAAAAAAAAAAAAAAAAAAAAAAAAAAAAAAAAAAAAAAAAAAAAAAAAAAAAAAAAAPZYQEdrRXpmGrAU0g3bLFXxU/Rs6KmR/ZTKJEdE0Um7L1JR0yNZo4ZJFZd1vNUAhIJU0z6jrT0nLG+kOP4M97MoiQo=</c2pa:manifest></metadata>
  <defs>
    <!-- 왼쪽 위는 낮, 오른쪽 아래는 밤으로 이어지는 하늘 -->
    <linearGradient id="sky" x1="0" y1="0" x2="1" y2="1">
      <stop offset="0" stop-color="#8fc1ee"/>
      <stop offset="0.38" stop-color="#fbe3b8"/>
      <stop offset="0.55" stop-color="#b79ac0"/>
      <stop offset="0.72" stop-color="#2f3b7a"/>
      <stop offset="1" stop-color="#121b45"/>
    </linearGradient>
    <linearGradient id="ground" gradientUnits="userSpaceOnUse" x1="0" y1="620" x2="1000" y2="1200">
      <stop offset="0" stop-color="#ecd09a"/>
      <stop offset="0.35" stop-color="#d2b27a"/>
      <stop offset="0.6" stop-color="#4f6a5a"/>
      <stop offset="1" stop-color="#1f3f48"/>
    </linearGradient>
    <radialGradient id="glowY" cx="0.5" cy="0.5" r="0.5">
      <stop offset="0" stop-color="#fff2a0" stop-opacity="0.95"/>
      <stop offset="1" stop-color="#ffd84a" stop-opacity="0"/>
    </radialGradient>
    <radialGradient id="glowM" cx="0.5" cy="0.5" r="0.5">
      <stop offset="0" stop-color="#fbeec2" stop-opacity="0.5"/>
      <stop offset="1" stop-color="#fbeec2" stop-opacity="0"/>
    </radialGradient>
    <mask id="crescent">
      <rect x="0" y="0" width="1000" height="1200" fill="#ffffff"/>
      <circle cx="838" cy="612" r="80" fill="#000000"/>
    </mask>

    <!-- 별 (반지름 1) -->
    <polygon id="star" points="0,-1 0.2645,-0.364 0.9511,-0.309 0.428,0.139 0.5878,0.809 0,0.45 -0.5878,0.809 -0.428,0.139 -0.9511,-0.309 -0.2645,-0.364" fill="#ffd84a" stroke="#ffb81f" stroke-width="0.08" stroke-linejoin="round"/>

    <!-- 소년 기본 모습 (발 가운데가 0,0) -->
    <g id="boyBase" transform="translate(-335 -1000)">
      <rect x="305" y="930" width="22" height="64" rx="8" fill="#3b3a55"/>
      <rect x="343" y="930" width="22" height="64" rx="8" fill="#3b3a55"/>
      <ellipse cx="314" cy="998" rx="20" ry="9" fill="#2b2a3a"/>
      <ellipse cx="356" cy="998" rx="20" ry="9" fill="#2b2a3a"/>
      <rect x="285" y="790" width="100" height="150" rx="30" fill="#e8b86a"/>
      <path d="M300 860 Q335 880 370 860" stroke="#c99a4e" stroke-width="4" fill="none" stroke-linecap="round"/>
      <circle cx="335" cy="745" r="46" fill="#f6d2ac"/>
      <circle cx="316" cy="765" r="8" fill="#f0a08a" opacity="0.5"/>
      <circle cx="354" cy="765" r="8" fill="#f0a08a" opacity="0.5"/>
      <path d="M283 735 Q335 625 387 735Z" fill="#2a63c9"/>
      <ellipse cx="335" cy="737" rx="66" ry="13" fill="#1f4fa8"/>
      <path d="M300 700 Q320 668 345 662" stroke="#5b8de0" stroke-width="5" fill="none" stroke-linecap="round" opacity="0.7"/>
    </g>
  </defs>

  <!-- 하늘 -->
  <rect width="1000" height="1200" fill="url(#sky)"/>
  <g fill="#ffffff" opacity="0.6">
    <ellipse cx="200" cy="120" rx="80" ry="20"/>
    <ellipse cx="245" cy="106" rx="44" ry="20"/>
    <ellipse cx="700" cy="150" rx="70" ry="16" opacity="0.35"/>
  </g>

  <!-- 커다란 초승달 -->
  <circle cx="800" cy="640" r="230" fill="url(#glowM)"/>
  <circle cx="800" cy="640" r="90" fill="#fbeec2" mask="url(#crescent)"/>

  <!-- 먼 언덕 -->
  <path d="M0 650 Q120 570 260 626 T540 660 L540 760 L0 760Z" fill="#d8c08a" opacity="0.7"/>

  <!-- 땅 -->
  <path d="M0 640 Q250 600 500 720 T1000 850 L1000 1200 L0 1200Z" fill="url(#ground)"/>

  <!-- 잔잔한 호수 -->
  <path d="M430 975 Q560 905 700 935 T1000 925 L1000 985 L430 985Z" fill="#16244f"/>
  <ellipse cx="740" cy="1000" rx="310" ry="56" fill="#1b3a78"/>
  <ellipse cx="740" cy="996" rx="270" ry="40" fill="#25468c" opacity="0.55"/>
  <g stroke="#fbeec2" stroke-width="4" stroke-linecap="round" opacity="0.6">
    <path d="M770 972h64M780 988h46M792 1004h24"/>
  </g>
  <g stroke="#9fc0e8" stroke-width="2.5" stroke-linecap="round" fill="none" opacity="0.5">
    <path d="M560 1000 q12 -6 24 0 t24 0"/>
    <path d="M920 1010 q12 -6 24 0 t24 0"/>
    <path d="M640 1026 q12 -6 24 0 t24 0"/>
  </g>

  <!-- 앞쪽 물가 -->
  <path d="M320 1075 Q600 1040 1000 1062 L1000 1200 L320 1200Z" fill="#21464c"/>
  <path d="M320 1075 Q600 1040 1000 1062 L1000 1074 Q600 1052 320 1088Z" fill="#3a6a66" opacity="0.7"/>

  <!-- 긴 여행길 (왼쪽 위에서 오른쪽 아래로) -->
  <path d="M50 708 C260 726 480 706 540 812 S370 990 330 1130" stroke="#f1dfae" stroke-width="56" fill="none" stroke-linecap="round" opacity="0.55"/>
  <path d="M50 708 C260 726 480 706 540 812 S370 990 330 1130" stroke="#c9a96a" stroke-width="3" stroke-dasharray="3 20" fill="none" stroke-linecap="round" opacity="0.7"/>

  <!-- 소년이 떠나온 작은 집 -->
  <g>
    <rect x="26" y="664" width="64" height="44" fill="#a98660"/>
    <path d="M16 666 L58 630 L100 666Z" fill="#8a4a44"/>
    <rect x="48" y="680" width="18" height="28" fill="#6a4a3a"/>
    <rect x="72" y="676" width="12" height="12" fill="#ffd36a"/>
  </g>

  <!-- ========== 왼쪽 위 장면: 별을 이고 길을 떠나는 소년 ========== -->
  <g transform="translate(240 706) scale(0.62)">
    <ellipse cx="0" cy="3" rx="75" ry="12" fill="#2b2a3a" opacity="0.18"/>
    <use href="#boyBase" xlink:href="#boyBase"/>
    <!-- 팔 -->
    <path d="M-39 -180 L-62 -98" stroke="#e8b86a" stroke-width="22" stroke-linecap="round"/>
    <circle cx="-64" cy="-90" r="12" fill="#f6d2ac"/>
    <path d="M37 -178 L64 -104" stroke="#e8b86a" stroke-width="22" stroke-linecap="round"/>
    <circle cx="66" cy="-96" r="12" fill="#f6d2ac"/>
    <!-- 웃는 얼굴 -->
    <path d="M-18 -243 q6 -8 12 0 M10 -243 q6 -8 12 0" stroke="#2b2a3a" stroke-width="3.5" fill="none" stroke-linecap="round"/>
    <path d="M-8 -224 q12 12 24 0" stroke="#2b2a3a" stroke-width="3.5" fill="none" stroke-linecap="round"/>
    <!-- 머리에 이고 있는 세 개의 별 -->
    <circle cx="0" cy="-415" r="70" fill="url(#glowY)"/>
    <circle cx="-44" cy="-392" r="52" fill="url(#glowY)"/>
    <circle cx="44" cy="-392" r="52" fill="url(#glowY)"/>
    <use href="#star" xlink:href="#star" transform="translate(0 -415) scale(28)"/>
    <use href="#star" xlink:href="#star" transform="translate(-44 -392) scale(20)"/>
    <use href="#star" xlink:href="#star" transform="translate(44 -392) scale(20)"/>
  </g>

  <!-- 기뻐할 할아버지를 떠올리는 생각 풍선 -->
  <g>
    <circle cx="332" cy="458" r="5" fill="#ffffff" opacity="0.94"/>
    <circle cx="352" cy="424" r="8" fill="#ffffff" opacity="0.94"/>
    <circle cx="376" cy="388" r="12" fill="#ffffff" opacity="0.94"/>
    <ellipse cx="480" cy="300" rx="116" ry="84" fill="#ffffff" opacity="0.94"/>
    <!-- 웃는 할아버지 -->
    <circle cx="480" cy="310" r="38" fill="#e9c29c"/>
    <g stroke="#9a9aa8" stroke-width="3" fill="none" stroke-linecap="round">
      <path d="M468 276 Q460 256 472 242"/>
      <path d="M492 276 Q502 258 492 242"/>
    </g>
    <circle cx="460" cy="322" r="7" fill="#f0a08a" opacity="0.55"/>
    <circle cx="500" cy="322" r="7" fill="#f0a08a" opacity="0.55"/>
    <path d="M462 304 q6 -8 12 0 M486 304 q6 -8 12 0" stroke="#2b2a3a" stroke-width="3" fill="none" stroke-linecap="round"/>
    <path d="M466 320 Q480 338 494 320" stroke="#2b2a3a" stroke-width="3" fill="none" stroke-linecap="round"/>
    <path d="M456 334 Q480 376 504 334 Q480 350 456 334Z" fill="#e8e8ee"/>
    <use href="#star" xlink:href="#star" transform="translate(414 262) scale(9)"/>
    <use href="#star" xlink:href="#star" transform="translate(548 264) scale(9)"/>
    <use href="#star" xlink:href="#star" transform="translate(424 352) scale(7)"/>
  </g>

  <!-- ========== 오른쪽 아래 장면: 달빛 아래 잠든 부엉이와 소년 ========== -->
  <!-- 소년이 떠올린 달빛 풍선 -->
  <g>
    <circle cx="528" cy="1046" r="5" fill="#ffffff" opacity="0.92"/>
    <circle cx="500" cy="1026" r="8" fill="#ffffff" opacity="0.92"/>
    <circle cx="470" cy="1002" r="11" fill="#ffffff" opacity="0.92"/>
    <ellipse cx="420" cy="960" rx="70" ry="46" fill="#ffffff" opacity="0.92"/>
    <ellipse cx="420" cy="960" rx="28" ry="32" fill="#34457f"/>
    <circle cx="414" cy="958" r="12" fill="#fbeec2"/>
    <circle cx="422" cy="954" r="11" fill="#34457f"/>
  </g>

  <!-- 누워 쉬는 소년 -->
  <ellipse cx="528" cy="1128" rx="140" ry="12" fill="#0d1a24" opacity="0.35"/>
  <g transform="translate(410 1092) rotate(90) scale(0.62)">
    <use href="#boyBase" xlink:href="#boyBase"/>
    <path d="M-39 -180 L-46 -100" stroke="#e8b86a" stroke-width="22" stroke-linecap="round"/>
    <path d="M37 -178 L44 -100" stroke="#e8b86a" stroke-width="22" stroke-linecap="round"/>
    <circle cx="-47" cy="-92" r="12" fill="#f6d2ac"/>
    <circle cx="45" cy="-92" r="12" fill="#f6d2ac"/>
    <path d="M-18 -246 q6 7 12 0 M10 -246 q6 7 12 0" stroke="#2b2a3a" stroke-width="3.5" fill="none" stroke-linecap="round"/>
    <path d="M-4 -225 q6 4 12 0" stroke="#2b2a3a" stroke-width="3" fill="none" stroke-linecap="round"/>
  </g>
  <g stroke="#ffffff" stroke-width="3.5" stroke-linecap="round" stroke-linejoin="round" fill="none" opacity="0.85">
    <path d="M600 1030 h12 l-12 15 h12"/>
    <path d="M620 1004 h16 l-16 20 h16"/>
  </g>

  <!-- 별 보따리 -->
  <ellipse cx="500" cy="1152" rx="30" ry="18" fill="#f6eddc"/>
  <path d="M488 1140 q12 -14 24 0" stroke="#d9c9a8" stroke-width="4" fill="none" stroke-linecap="round"/>
  <circle cx="500" cy="1132" r="38" fill="url(#glowY)" opacity="0.7"/>
  <use href="#star" xlink:href="#star" transform="translate(488 1136) scale(10)"/>
  <use href="#star" xlink:href="#star" transform="translate(512 1134) scale(10)"/>
  <use href="#star" xlink:href="#star" transform="translate(500 1120) scale(12)"/>

  <!-- 잠든 부엉이 -->
  <g transform="translate(750 1104) scale(0.85)">
    <ellipse cx="0" cy="3" rx="80" ry="12" fill="#0d1a24" opacity="0.35"/>
    <ellipse cx="-24" cy="-2" rx="18" ry="8" fill="#e8a23c"/>
    <ellipse cx="24" cy="-2" rx="18" ry="8" fill="#e8a23c"/>
    <ellipse cx="0" cy="-85" rx="62" ry="85" fill="#8b6a4a"/>
    <ellipse cx="0" cy="-72" rx="40" ry="62" fill="#d9bf94"/>
    <g stroke="#b79a6c" stroke-width="3" fill="none" stroke-linecap="round">
      <path d="M-24 -110 q9 9 18 0 M6 -110 q9 9 18 0"/>
      <path d="M-34 -82 q9 9 18 0 M-9 -82 q9 9 18 0 M16 -82 q9 9 18 0"/>
      <path d="M-24 -52 q9 9 18 0 M6 -52 q9 9 18 0"/>
    </g>
    <ellipse cx="-58" cy="-78" rx="16" ry="48" fill="#6e5136" transform="rotate(8 -58 -78)"/>
    <ellipse cx="58" cy="-78" rx="16" ry="48" fill="#6e5136" transform="rotate(-8 58 -78)"/>
    <path d="M-48 -222 L-44 -258 L-18 -232Z" fill="#6e5136"/>
    <path d="M48 -222 L44 -258 L18 -232Z" fill="#6e5136"/>
    <circle cx="0" cy="-186" r="56" fill="#8b6a4a"/>
    <ellipse cx="0" cy="-178" rx="46" ry="36" fill="#a58461"/>
    <path d="M-36 -182 q14 12 28 0 M8 -182 q14 12 28 0" stroke="#3a2a1c" stroke-width="4" fill="none" stroke-linecap="round"/>
    <path d="M-9 -172 L9 -172 L0 -154Z" fill="#e8a23c"/>
    <ellipse cx="34" cy="-120" rx="10" ry="60" fill="#fbeec2" opacity="0.12"/>
    <!-- 코 고는 방울 -->
    <circle cx="26" cy="-156" r="6" fill="none" stroke="#ffffff" stroke-width="2.5" opacity="0.8"/>
    <circle cx="54" cy="-162" r="16" fill="#ffffff" fill-opacity="0.3" stroke="#ffffff" stroke-width="2.5" opacity="0.9"/>
    <ellipse cx="48" cy="-168" rx="4" ry="6" fill="#ffffff" opacity="0.7"/>
  </g>
  <g stroke="#ffffff" stroke-width="3.5" stroke-linecap="round" stroke-linejoin="round" fill="none" opacity="0.85">
    <path d="M820 906 h12 l-12 15 h12"/>
    <path d="M840 880 h16 l-16 20 h16"/>
  </g>
</svg>
